<svg width="40" height="40" viewBox="0 0 40 40" fill="none" xmlns="http://www.w3.org/2000/svg">
<path d="M24.5171 20L34.4971 25.7633C34.698 25.8741 34.9242 25.9311 35.1536 25.9289C35.3831 25.9267 35.6081 25.8653 35.8068 25.7506C36.0056 25.636 36.1714 25.472 36.2883 25.2745C36.4051 25.077 36.469 24.8527 36.4738 24.6233V15.38C36.469 15.1506 36.4051 14.9263 36.2883 14.7288C36.1714 14.5313 36.0056 14.3673 35.8068 14.2527C35.6081 14.1381 35.3831 14.0767 35.1536 14.0744C34.9242 14.0722 34.698 14.1292 34.4971 14.24L24.5171 20Z" fill="#33A6E1"/>
<path d="M28.9135 29.4167H5.74353C5.14112 29.3983 4.5703 29.1429 4.1552 28.706C3.7401 28.269 3.51429 27.6859 3.52687 27.0833V12.9333C3.51429 12.3308 3.7401 11.7476 4.1552 11.3107C4.5703 10.8737 5.14112 10.6183 5.74353 10.6H28.9135C29.5159 10.6183 30.0868 10.8737 30.5019 11.3107C30.917 11.7476 31.1428 12.3308 31.1302 12.9333V27.07C31.1428 27.6726 30.917 28.2557 30.5019 28.6927C30.0868 29.1296 29.5159 29.385 28.9135 29.4033" fill="#B6D871"/>
<path d="M21.347 20L13.3804 15.4V24.6L21.347 20Z" fill="white"/>
</svg>
