<svg width="40" height="40" viewBox="0 0 40 40" fill="none" xmlns="http://www.w3.org/2000/svg">
<path d="M9.3335 5.21266L9.3335 34.1207C9.3335 35.3427 10.3241 36.3333 11.5462 36.3333H28.4542C29.6762 36.3333 30.6668 35.3427 30.6668 34.1207L30.6668 5.21266C30.6668 3.99064 29.6762 3 28.4542 3H11.5462C10.3241 3 9.3335 3.99064 9.3335 5.21266Z" fill="#33A6E1"/>
<path d="M30.6668 8.33333H9.3335V30.3333H30.6668V8.33333Z" fill="#B6D871"/>
<path d="M23 5.33333H17V6H23V5.33333Z" fill="#B6D871"/>
<path d="M20.0002 35C20.9206 35 21.6668 34.2538 21.6668 33.3333C21.6668 32.4129 20.9206 31.6667 20.0002 31.6667C19.0797 31.6667 18.3335 32.4129 18.3335 33.3333C18.3335 34.2538 19.0797 35 20.0002 35Z" fill="#B6D871"/>
</svg>
