<svg width="360" height="360" viewBox="0 0 360 360" fill="none" xmlns="http://www.w3.org/2000/svg">
<g clip-path="url(#clip0_285_938)">
<circle cx="180" cy="33" r="274" fill="url(#paint0_linear_285_938)"/>
<path d="M272 119V112.088H254.701L271.661 92.6407V86H245.339V92.9117H261.756L245 112.156V119H272Z" fill="white"/>
<path d="M316 86V77.4127H294.857L315.585 53.2505V45H283.415V53.5873H303.48L283 77.4969V86H316Z" fill="white"/>
<path d="M79 134.586H285.944V258.469C285.944 261.914 283.145 264.692 279.721 264.692H85.2227C81.7773 264.692 79 261.893 79 258.469V134.586Z" fill="url(#paint1_linear_285_938)"/>
<path d="M285.947 135.012H79V115.223C79 111.777 81.7984 109 85.2227 109H279.725C283.17 109 285.947 111.798 285.947 115.223V135.012Z" fill="#0061A0"/>
<path d="M95.249 124.823C97.045 124.823 98.501 123.367 98.501 121.571C98.501 119.775 97.045 118.319 95.249 118.319C93.453 118.319 91.9971 119.775 91.9971 121.571C91.9971 123.367 93.453 124.823 95.249 124.823Z" fill="white"/>
<path d="M108.247 124.823C110.043 124.823 111.499 123.367 111.499 121.571C111.499 119.775 110.043 118.319 108.247 118.319C106.451 118.319 104.995 119.775 104.995 121.571C104.995 123.367 106.451 124.823 108.247 124.823Z" fill="white"/>
<path d="M121.24 124.823C123.036 124.823 124.492 123.367 124.492 121.571C124.492 119.775 123.036 118.319 121.24 118.319C119.444 118.319 117.988 119.775 117.988 121.571C117.988 123.367 119.444 124.823 121.24 124.823Z" fill="white"/>
<path opacity="0.2" d="M275.966 298.931C302.547 298.931 324.095 277.37 324.095 250.774C324.095 224.177 302.547 202.617 275.966 202.617C249.385 202.617 227.837 224.177 227.837 250.774C227.837 277.37 249.385 298.931 275.966 298.931Z" fill="#0061A0"/>
<path d="M268.839 193.172V187.73H271.542V177H260.812V187.73H263.516V193.172C238.094 194.561 217.908 215.623 217.908 241.406C217.908 267.19 239.522 289.714 266.16 289.714C292.798 289.714 314.412 268.079 314.412 241.406C314.412 214.733 294.225 194.561 268.825 193.172H268.842H268.839Z" fill="#3395C9"/>
<path d="M266.615 280.755C288.433 280.755 306.12 263.059 306.12 241.229C306.12 219.399 288.433 201.703 266.615 201.703C244.797 201.703 227.11 219.399 227.11 241.229C227.11 263.059 244.797 280.755 266.615 280.755Z" fill="white"/>
<path d="M294.554 269.189C309.97 253.752 309.97 228.724 294.554 213.29L238.694 269.189C254.11 284.626 279.116 284.626 294.554 269.189Z" fill="url(#paint2_linear_285_938)"/>
<path d="M293.411 243.693H264.168V214.412H269.079V238.786H293.411V243.693Z" fill="#B6D871"/>
<path d="M135.292 164.479H128.996V170.775H135.292V164.479Z" fill="#0061A0"/>
<path d="M128.996 158.182H122.699V164.479H128.996V158.182Z" fill="#0061A0"/>
<path d="M166.81 158.182H160.513V164.479H166.81V158.182Z" fill="#0061A0"/>
<path d="M160.513 164.479H154.217V170.775H160.513V164.479Z" fill="#0061A0"/>
<path d="M154.213 170.779H135.176V177.075H154.213V170.779Z" fill="#0061A0"/>
<path d="M188.568 196.098H175.943V202.395H188.568V196.098Z" fill="#0061A0"/>
<path d="M201.301 208.709H195.005V227.764H201.301V208.709Z" fill="#0061A0"/>
<path d="M195.002 202.395H188.705V208.691H195.002V202.395Z" fill="#0061A0"/>
<path d="M169.643 208.709H163.347V227.764H169.643V208.709Z" fill="#0061A0"/>
<path d="M175.94 202.395H169.643V208.691H175.94V202.395Z" fill="#0061A0"/>
<path d="M175.852 240.36H188.705V234.064H175.852V240.36Z" fill="#0061A0"/>
<path d="M169.647 234.036H175.943V227.739H169.647V234.036Z" fill="#0061A0"/>
<path d="M188.708 234.036H195.005V227.739H188.708V234.036Z" fill="#0061A0"/>
<path d="M210.899 164.479H204.603V170.775H210.899V164.479Z" fill="#0061A0"/>
<path d="M204.599 158.182H198.303V164.479H204.599V158.182Z" fill="#0061A0"/>
<path d="M242.417 158.182H236.12V164.479H242.417V158.182Z" fill="#0061A0"/>
<path d="M236.117 164.479H229.82V170.775H236.117V164.479Z" fill="#0061A0"/>
<path d="M229.82 170.779H210.917V177.075H229.82V170.779Z" fill="#0061A0"/>
<rect x="260" y="177" width="12" height="11" fill="#0061A0"/>
<path fill-rule="evenodd" clip-rule="evenodd" d="M360 45H325V36.9991L348.611 8.0127H325.676V0H359.693V7.7535L335.779 36.9252H360V45Z" fill="white"/>
</g>
<defs>
<linearGradient id="paint0_linear_285_938" x1="293.56" y1="-208.939" x2="6.90307" y2="245.127" gradientUnits="userSpaceOnUse">
<stop stop-color="#DBEBB8"/>
<stop offset="1" stop-color="#CCE9F8"/>
</linearGradient>
<linearGradient id="paint1_linear_285_938" x1="79" y1="182.668" x2="285.613" y2="182.668" gradientUnits="userSpaceOnUse">
<stop stop-color="#F2F2F2"/>
<stop offset="0.493638" stop-color="white"/>
</linearGradient>
<linearGradient id="paint2_linear_285_938" x1="295.408" y1="213" x2="239.408" y2="269" gradientUnits="userSpaceOnUse">
<stop stop-color="#F2F2F2"/>
<stop offset="1" stop-color="#F2F2F2" stop-opacity="0"/>
</linearGradient>
<clipPath id="clip0_285_938">
<rect width="360" height="360" fill="white"/>
</clipPath>
</defs>
</svg>
