<svg width="534" height="534" viewBox="0 0 534 534" fill="none" xmlns="http://www.w3.org/2000/svg">
<circle cx="267" cy="267" r="212" fill="url(#paint0_linear_285_2529)"/>
<path d="M348 158V150.46H329.42L347.636 129.244V122H319.364V129.54H336.997L319 150.534V158H348Z" fill="white"/>
<path d="M141 202.523H393.506V354.002C393.506 358.214 390.091 361.61 385.913 361.61H148.593C144.389 361.61 141 358.189 141 354.002V202.523Z" fill="url(#paint1_linear_285_2529)"/>
<path d="M393.506 203.448H141V179.523C141 175.358 144.414 172 148.593 172H385.913C390.117 172 393.506 175.383 393.506 179.523V203.448Z" fill="#0061A0"/>
<path d="M160.424 190.499C162.467 190.499 164.123 188.842 164.123 186.799C164.123 184.756 162.467 183.099 160.424 183.099C158.38 183.099 156.724 184.756 156.724 186.799C156.724 188.842 158.38 190.499 160.424 190.499Z" fill="white"/>
<path d="M176.147 190.499C178.191 190.499 179.847 188.842 179.847 186.799C179.847 184.756 178.191 183.099 176.147 183.099C174.104 183.099 172.448 184.756 172.448 186.799C172.448 188.842 174.104 190.499 176.147 190.499Z" fill="white"/>
<path d="M192.333 190.499C194.632 190.499 196.496 188.842 196.496 186.799C196.496 184.756 194.632 183.099 192.333 183.099C190.035 183.099 188.171 184.756 188.171 186.799C188.171 188.842 190.035 190.499 192.333 190.499Z" fill="white"/>
<path d="M209.445 239.52H202.045V246.919H209.445V239.52Z" fill="#0061A0"/>
<path d="M202.045 232.12H193.721V239.52H202.045V232.12Z" fill="#0061A0"/>
<path d="M247.367 232.12H239.967V239.52H247.367V232.12Z" fill="#0061A0"/>
<path d="M239.967 239.52H232.568V246.919H239.967V239.52Z" fill="#0061A0"/>
<path d="M232.568 246.919H209.445V254.319H232.568V246.919Z" fill="#0061A0"/>
<path d="M274.19 278.367H258.466V285.766H274.19V278.367Z" fill="#0061A0"/>
<path d="M289.913 293.166H282.514V316.289H289.913V293.166Z" fill="#0061A0"/>
<path d="M282.514 285.766H274.19V293.166H282.514V285.766Z" fill="#0061A0"/>
<path d="M251.067 293.166H243.667V316.289H251.067V293.166Z" fill="#0061A0"/>
<path d="M258.466 285.766H251.067V293.166H258.466V285.766Z" fill="#0061A0"/>
<path d="M258.466 332.013H274.19V324.613H258.466V332.013Z" fill="#0061A0"/>
<path d="M251.066 324.613H258.466V316.289H251.066V324.613Z" fill="#0061A0"/>
<path d="M274.19 324.613H282.514V316.289H274.19V324.613Z" fill="#0061A0"/>
<path d="M301.938 239.52H293.613V246.919H301.938V239.52Z" fill="#0061A0"/>
<path d="M293.613 232.12H286.214V239.52H293.613V232.12Z" fill="#0061A0"/>
<path d="M339.86 232.12H332.46V239.52H339.86V232.12Z" fill="#0061A0"/>
<path d="M332.46 239.52H325.061V246.919H332.46V239.52Z" fill="#0061A0"/>
<path d="M325.061 246.919H301.938V254.319H325.061V246.919Z" fill="#0061A0"/>
<path opacity="0.2" d="M377.582 404.65C410.398 404.65 437 378.048 437 345.232C437 312.417 410.398 285.814 377.582 285.814C344.766 285.814 318.164 312.417 318.164 345.232C318.164 378.048 344.766 404.65 377.582 404.65Z" fill="#0061A0"/>
<path d="M368.717 274.004V267.272H372.046V254H358.833V267.272H362.162V274.004C330.858 275.721 306 301.774 306 333.667C306 365.56 332.616 393.421 365.418 393.421C398.22 393.421 424.836 366.66 424.836 333.667C424.836 300.674 399.978 275.721 368.699 274.004H368.721H368.717Z" fill="#3395C9"/>
<path d="M365.886 382.193C392.758 382.193 414.543 360.408 414.543 333.536C414.543 306.663 392.758 284.879 365.886 284.879C339.013 284.879 317.229 306.663 317.229 333.536C317.229 360.408 339.013 382.193 365.886 382.193Z" fill="white"/>
<path d="M400.261 367.904C419.303 348.851 419.303 317.962 400.261 298.914L331.264 367.904C350.306 386.956 381.194 386.956 400.261 367.904Z" fill="url(#paint2_linear_285_2529)"/>
<path d="M398.636 336.343H363.078V299.85H369.05V330.226H398.636V336.343Z" fill="#B6D871"/>
<rect x="357.464" y="254" width="14.9714" height="14.0357" fill="#0061A0"/>
<path fill-rule="evenodd" clip-rule="evenodd" d="M394 129H357V120.999L381.96 92.0127H357.715V84H393.675V91.7535L368.395 120.925H394V129Z" fill="white"/>
<defs>
<linearGradient id="paint0_linear_285_2529" x1="354.864" y1="79.8061" x2="133.071" y2="431.127" gradientUnits="userSpaceOnUse">
<stop stop-color="#DBEBB8"/>
<stop offset="1" stop-color="#CCE9F8"/>
</linearGradient>
<linearGradient id="paint1_linear_285_2529" x1="141" y1="261.316" x2="393.102" y2="261.316" gradientUnits="userSpaceOnUse">
<stop stop-color="#F2F2F2"/>
<stop offset="0.493638" stop-color="white"/>
</linearGradient>
<linearGradient id="paint2_linear_285_2529" x1="401.316" y1="298.556" x2="332.202" y2="367.727" gradientUnits="userSpaceOnUse">
<stop stop-color="#F2F2F2"/>
<stop offset="1" stop-color="#F2F2F2" stop-opacity="0"/>
</linearGradient>
</defs>
</svg>
