<svg width="48" height="49" viewBox="0 0 48 49" fill="none" xmlns="http://www.w3.org/2000/svg">
<path fill-rule="evenodd" clip-rule="evenodd" d="M40.2137 35.3336C42.3563 32.1269 43.5 28.3567 43.5 24.5C43.5 19.3283 41.4455 14.3684 37.7886 10.7114C34.1316 7.05446 29.1717 5 24 5C20.1433 5 16.3731 6.14365 13.1664 8.28634C9.95963 10.429 7.46027 13.4745 5.98436 17.0377C4.50845 20.6008 4.12228 24.5216 4.8747 28.3043C5.62711 32.0869 7.4843 35.5615 10.2114 38.2886C12.9385 41.0157 16.4131 42.8729 20.1957 43.6253C23.9784 44.3777 27.8992 43.9916 31.4623 42.5156C35.0255 41.0397 38.071 38.5404 40.2137 35.3336ZM13.1821 24.8147L21.7302 33.3636L37.3169 17.7787L34.2882 14.75L21.7302 27.3053L16.2126 21.7851L13.1821 24.8147Z" fill="white"/>
</svg>
