<svg width="240" height="193" viewBox="0 0 240 193" fill="none" xmlns="http://www.w3.org/2000/svg">
<g clip-path="url(#clip0_909_25851)">
<path d="M227.577 193.433C235.525 177.401 240 159.365 240 140.276C240 74.0661 186.269 20.3945 119.987 20.3945C53.7049 20.3945 0 74.0404 0 140.25C0 159.339 4.4754 177.401 12.4231 193.408H227.577V193.433Z" fill="url(#paint0_linear_909_25851)"/>
<path d="M202.894 193.524C206.841 193.524 213.802 162.93 207.152 147.772C204.635 142.057 199.88 142.926 199.88 142.926C199.88 133.826 199.445 130.254 199.258 126.557C198.574 111.71 192.297 103.759 192.297 103.759C186.144 94.6579 189.873 88.2594 189.873 88.2594L185.833 91.4587L182.694 79.1586L162.898 74.3131V89.0049L165.073 91.4276H159.013C166.099 95.0307 162.338 101.46 162.338 101.46C154.32 109.474 153.761 117.457 153.108 122.675C151.958 132.055 152.518 139.882 153.139 143.517C149.503 141.684 144.034 141.684 142.231 148.362C139.279 159.202 148.913 186.567 148.416 186.66C142.884 187.53 144.189 193.431 145.277 193.431C145.277 193.4 198.916 193.524 202.894 193.524Z" fill="url(#paint1_linear_909_25851)"/>
<path d="M190.341 94.058L158.29 97.9727L159.101 104.601L191.151 100.687L190.341 94.058Z" fill="#A7A8AA"/>
<path d="M188.008 80.2763C184.434 72.1074 173.277 68.4422 173.277 68.4422C163.301 64.0937 160.815 67.9142 160.815 67.9142C155.905 72.5733 143.225 68.0384 143.225 68.0384C137.103 66.6717 138.812 75.3687 138.812 75.3687C139.807 89.7499 163.27 94.8128 163.27 94.8128C169.455 96.7075 175.732 84.8734 175.732 84.8734C176.696 83.662 177.286 83.9105 177.286 83.9105L171.661 94.9681C168.74 100 174.241 99.7204 174.241 99.7204L180.767 100.093C188.256 101.553 190.929 92.7628 190.929 92.7628C191.737 88.3832 190.681 83.8794 188.008 80.2763Z" fill="white"/>
<path opacity="0.5" d="M201.558 182.825C195.937 182.424 190.729 179.621 186.972 178.185C187.193 179.4 188.497 182.693 191.944 186.14C195.392 189.588 201.779 191.555 204.541 192.107C204.873 191.444 205.734 189.588 206.53 187.466C207.326 185.345 207.966 182.383 208.187 181.168C207.745 181.61 206.199 183.157 201.558 182.825Z" fill="#D9D9D6"/>
<path d="M187.107 178.366C187.107 178.366 197.766 190.48 212.59 186.256C225.332 182.622 224.182 167.247 224.71 166.843C225.922 165.942 230.18 175.944 222.877 186.256C218.122 192.996 209.451 193.524 200.439 193.524C196.803 193.524 187.076 193.524 187.076 193.524V178.366H187.107Z" fill="white"/>
<path d="M27.8452 193.244L77.0406 112.58C77.0406 112.58 88.7879 111.368 100.318 124.103C107.372 131.93 134.161 166.625 146.405 181.721C150.663 186.97 147.617 193.244 147.617 193.244H27.8452Z" fill="#D8D8D8"/>
<path d="M35.0002 193L75.3086 127.026C75.3086 127.026 84.9337 126.035 94.3806 136.451C100.161 142.852 122.11 171.229 132.143 183.575C135.631 187.869 133.136 193 133.136 193H35.0002Z" fill="#BFBFBF"/>
<path fill-rule="evenodd" clip-rule="evenodd" d="M12.3423 193.244H95.6338L46.4384 112.58C46.4384 112.58 34.6912 111.368 23.1615 124.103C19.4429 128.229 10.2413 139.82 0.576889 152.071C2.01539 166.733 6.10059 180.625 12.3423 193.244Z" fill="#D8D8D8"/>
<path d="M56.8803 72.9154C69.218 70.679 88.2995 68.1631 99.736 66.2373C110.116 64.4979 118.445 63.4418 125.25 69.6229C133.082 76.7048 131.311 91.9556 129.259 104.318C126.4 121.463 114.032 193.214 114.032 193.214H40.689C40.689 193.214 40.2228 100.063 40.689 90.9928C41.1862 81.9541 46.4072 74.8412 56.8803 72.9154Z" fill="white"/>
<path d="M99.7358 66.2373C110.116 64.4979 118.444 63.4418 125.25 69.6229C133.082 76.7048 131.31 91.9556 129.259 104.318C126.4 121.463 114.031 193.214 114.031 193.214H89.5002C97.0002 139 103.5 97.5002 99.7358 66.2373Z" fill="url(#paint2_linear_909_25851)"/>
<path d="M70.2762 25.7706C70.2762 9.14645 101.444 1.68886 110.716 12.4757C113.956 16.2489 117.445 24.9272 117.76 29.4994C117.895 31.6524 116.612 31.5858 116.612 33.2504C116.612 37.4009 122.643 42.2617 119.988 44.8807C119.155 45.7019 117.467 46.2568 117.467 46.5453C116.612 50.5214 116.56 58.9984 113.702 61.1292C110.326 63.615 104.428 58.6433 102.762 61.1292C101.075 63.615 100.162 71.7369 100.162 71.7369H71.9337C71.9337 71.7369 77.9051 49.8746 77.0499 45.7019C76.1273 41.3295 70.2762 36.5797 70.2762 25.7706Z" fill="white"/>
<path d="M117.68 17.3721C110.254 6.23394 96.2431 4.77537 90.1657 5.43835L102.431 31.4917C110.608 32.1547 125.105 28.5102 117.68 17.3721Z" fill="#BFBFBF"/>
<rect x="119.572" y="29.8342" width="1.32597" height="9.28177" transform="rotate(9.95294 119.572 29.8342)" fill="#A7A8AA"/>
<rect x="110.055" y="31.7585" width="1.32597" height="9.28177" transform="rotate(-78.1339 110.055 31.7585)" fill="#A7A8AA"/>
<path opacity="0.5" d="M99.7359 119.848L89.6669 193.214H40.689C40.689 193.214 61.4797 190.791 79.1006 171.378C93.3651 155.661 99.7359 119.848 99.7359 119.848Z" fill="#D9D9D6"/>
<path d="M89.7626 5.43854C66.8896 5.43854 63.7284 28.7651 62.9835 34.6098C58.6739 68.422 50.7183 64.7756 50.7183 81.6816C50.7183 98.5877 70.9391 110.19 98.1214 103.229C98.1214 103.229 85.0787 95.2728 101.105 65.77C117.131 36.2673 115.65 5.43854 89.7626 5.43854Z" fill="#BFBFBF"/>
<path d="M92.1546 193.245C92.4965 188.989 108.222 179.298 111.92 179.298C115.556 179.298 121.616 190.822 118.601 193.245C118.601 193.245 92.1546 193.493 92.1546 193.245Z" fill="white"/>
</g>
<defs>
<linearGradient id="paint0_linear_909_25851" x1="120" y1="20.3945" x2="120" y2="193.433" gradientUnits="userSpaceOnUse">
<stop offset="0.280215" stop-color="#E0E0DE"/>
<stop offset="1" stop-color="#F2F2F2"/>
</linearGradient>
<linearGradient id="paint1_linear_909_25851" x1="175.701" y1="88.3504" x2="190.077" y2="180.123" gradientUnits="userSpaceOnUse">
<stop stop-color="#E7E7E7"/>
<stop offset="0.275379" stop-color="white"/>
</linearGradient>
<linearGradient id="paint2_linear_909_25851" x1="61.0002" y1="193" x2="59.3059" y2="114.537" gradientUnits="userSpaceOnUse">
<stop stop-color="#F2F2F2"/>
<stop offset="0.272247" stop-color="white"/>
</linearGradient>
<clipPath id="clip0_909_25851">
<rect width="240" height="192.928" fill="white"/>
</clipPath>
</defs>
</svg>
