<svg width="240" height="193" viewBox="0 0 240 193" fill="none" xmlns="http://www.w3.org/2000/svg">
<g clip-path="url(#clip0_4336_15027)">
<path d="M227.577 193.433C235.525 177.401 240 159.365 240 140.276C240 74.0661 186.269 20.3945 119.987 20.3945C53.7049 20.3945 0 74.0404 0 140.25C0 159.339 4.4754 177.401 12.4231 193.408H227.577V193.433Z" fill="url(#paint0_linear_4336_15027)"/>
<path d="M202.894 193.524C206.841 193.524 213.802 162.929 207.152 147.771C204.635 142.056 199.88 142.926 199.88 142.926C199.88 133.825 199.445 130.253 199.258 126.557C198.574 111.71 192.297 103.758 192.297 103.758C186.144 94.6573 189.873 88.2588 189.873 88.2588L185.833 91.4581L182.694 79.158L162.898 74.3125V89.0043L165.073 91.427H159.013C166.099 95.0301 162.338 101.46 162.338 101.46C154.32 109.473 153.761 117.456 153.108 122.674C151.958 132.055 152.518 139.882 153.139 143.516C149.503 141.683 144.034 141.683 142.231 148.361C139.279 159.202 148.913 186.566 148.416 186.659C142.884 187.529 144.189 193.431 145.277 193.431C145.277 193.4 198.916 193.524 202.894 193.524Z" fill="url(#paint1_linear_4336_15027)"/>
<path d="M190.341 94.058L158.29 97.9727L159.101 104.601L191.151 100.687L190.341 94.058Z" fill="#7F51B2"/>
<path d="M188.008 80.2762C184.434 72.1072 173.277 68.4421 173.277 68.4421C163.301 64.0935 160.815 67.914 160.815 67.914C155.905 72.5732 143.225 68.0383 143.225 68.0383C137.103 66.6716 138.812 75.3686 138.812 75.3686C139.807 89.7498 163.27 94.8127 163.27 94.8127C169.455 96.7074 175.732 84.8732 175.732 84.8732C176.696 83.6619 177.286 83.9103 177.286 83.9103L171.661 94.968C168.74 99.9998 174.241 99.7203 174.241 99.7203L180.767 100.093C188.257 101.553 190.929 92.7627 190.929 92.7627C191.737 88.3831 190.681 83.8793 188.008 80.2762Z" fill="white"/>
<path opacity="0.5" d="M201.558 182.825C195.937 182.424 190.729 179.621 186.972 178.185C187.193 179.4 188.497 182.693 191.944 186.14C195.392 189.588 201.779 191.555 204.541 192.107C204.872 191.444 205.734 189.588 206.53 187.466C207.326 185.345 207.966 182.383 208.187 181.168C207.745 181.61 206.198 183.157 201.558 182.825Z" fill="#CCE9F8"/>
<path d="M187.107 178.366C187.107 178.366 197.766 190.48 212.59 186.256C225.332 182.622 224.182 167.247 224.71 166.843C225.922 165.942 230.18 175.944 222.877 186.256C218.122 192.996 209.451 193.524 200.439 193.524C196.803 193.524 187.076 193.524 187.076 193.524V178.366H187.107Z" fill="white"/>
<path d="M27.8452 193.245L77.0406 112.58C77.0406 112.58 88.7878 111.368 100.318 124.103C107.372 131.931 134.161 166.626 146.405 181.721C150.663 186.97 147.617 193.245 147.617 193.245H27.8452Z" fill="#B6D871"/>
<path d="M35.0002 193L75.3086 127.025C75.3086 127.025 84.9337 126.035 94.3806 136.45C100.161 142.852 122.11 171.229 132.143 183.575C135.631 187.868 133.136 193 133.136 193H35.0002Z" fill="#A4CE4E"/>
<path fill-rule="evenodd" clip-rule="evenodd" d="M12.3423 193.245H95.6339L46.4384 112.58C46.4384 112.58 34.6912 111.368 23.1615 124.103C19.4429 128.229 10.2413 139.82 0.576904 152.071C2.0154 166.734 6.10061 180.626 12.3423 193.245Z" fill="#B6D871"/>
<path d="M56.8804 72.9151C69.2181 70.6788 88.2996 68.1628 99.7361 66.2371C110.116 64.4977 118.445 63.4416 125.251 69.6227C133.082 76.7046 131.311 91.9554 129.26 104.318C126.4 121.463 114.032 193.214 114.032 193.214H40.6891C40.6891 193.214 40.223 100.062 40.6891 90.9925C41.1864 81.9538 46.4074 74.8409 56.8804 72.9151Z" fill="white"/>
<path d="M99.7358 66.2371C110.116 64.4977 118.444 63.4416 125.25 69.6227C133.082 76.7046 131.31 91.9554 129.259 104.318C126.4 121.463 114.031 193.214 114.031 193.214H89.5002C97.0002 139 103.5 97.5 99.7358 66.2371Z" fill="url(#paint2_linear_4336_15027)"/>
<path d="M70.2763 25.7709C70.2763 9.14669 101.444 1.68911 110.716 12.476C113.957 16.2492 117.445 24.9275 117.76 29.4997C117.895 31.6526 116.612 31.586 116.612 33.2507C116.612 37.4012 122.643 42.2619 119.988 44.881C119.155 45.7022 117.467 46.2571 117.467 46.5456C116.612 50.5217 116.56 58.9987 113.702 61.1294C110.326 63.6153 104.428 58.6435 102.763 61.1294C101.075 63.6153 100.162 71.7371 100.162 71.7371H71.9338C71.9338 71.7371 77.9052 49.8749 77.05 45.7022C76.1274 41.3297 70.2763 36.58 70.2763 25.7709Z" fill="white"/>
<path d="M117.68 17.3719C110.254 6.23375 96.2431 4.77519 90.1658 5.43817L102.431 31.4916C110.608 32.1545 125.105 28.51 117.68 17.3719Z" fill="url(#paint3_linear_4336_15027)"/>
<rect x="119.572" y="29.834" width="1.32597" height="9.28177" transform="rotate(9.95294 119.572 29.834)" fill="#7F51B2"/>
<rect x="110.055" y="31.7588" width="1.32597" height="9.28177" transform="rotate(-78.1339 110.055 31.7588)" fill="#7F51B2"/>
<path opacity="0.5" d="M99.7359 119.848L89.6669 193.213H40.689C40.689 193.213 61.4797 190.791 79.1006 171.378C93.3651 155.661 99.7359 119.848 99.7359 119.848Z" fill="#CCE9F8"/>
<path d="M89.7626 5.43848C66.8897 5.43848 63.7285 28.7651 62.9835 34.6097C58.674 68.4219 50.7183 64.7755 50.7183 81.6816C50.7183 98.5877 70.9391 110.19 98.1214 103.229C98.1214 103.229 85.0788 95.2727 101.105 65.77C117.131 36.2672 115.65 5.43848 89.7626 5.43848Z" fill="url(#paint4_linear_4336_15027)"/>
<path d="M92.1545 193.244C92.4964 188.989 108.222 179.298 111.92 179.298C115.556 179.298 121.616 190.821 118.601 193.244C118.601 193.244 92.1545 193.493 92.1545 193.244Z" fill="white"/>
</g>
<defs>
<linearGradient id="paint0_linear_4336_15027" x1="188.5" y1="42.5" x2="111.293" y2="197.969" gradientUnits="userSpaceOnUse">
<stop stop-color="#CCE4F2"/>
<stop offset="0.205858" stop-color="#CCE9F8"/>
<stop offset="1" stop-color="#EDF5DC"/>
</linearGradient>
<linearGradient id="paint1_linear_4336_15027" x1="175.701" y1="88.3498" x2="190.077" y2="180.122" gradientUnits="userSpaceOnUse">
<stop stop-color="#CCE9F8"/>
<stop offset="0.275379" stop-color="white"/>
</linearGradient>
<linearGradient id="paint2_linear_4336_15027" x1="61.0002" y1="193" x2="58.3671" y2="71.0569" gradientUnits="userSpaceOnUse">
<stop stop-color="#E6F2F8"/>
<stop offset="0.272247" stop-color="white"/>
</linearGradient>
<linearGradient id="paint3_linear_4336_15027" x1="101" y1="41" x2="101" y2="5" gradientUnits="userSpaceOnUse">
<stop stop-color="#0061A0"/>
<stop offset="0.688381" stop-color="#0090DA"/>
<stop offset="1" stop-color="#33A6E1"/>
</linearGradient>
<linearGradient id="paint4_linear_4336_15027" x1="86" y1="140.5" x2="86" y2="5" gradientUnits="userSpaceOnUse">
<stop stop-color="#0061A0"/>
<stop offset="0.744619" stop-color="#0090DA"/>
<stop offset="1" stop-color="#33A6E1"/>
</linearGradient>
<clipPath id="clip0_4336_15027">
<rect width="240" height="192.928" fill="white"/>
</clipPath>
</defs>
</svg>
