<svg width="534" height="534" viewBox="0 0 534 534" fill="none" xmlns="http://www.w3.org/2000/svg">
<circle cx="266" cy="267" r="212" fill="url(#paint0_linear_906_2612)"/>
<path fill-rule="evenodd" clip-rule="evenodd" d="M183.01 72.2883C208.764 61.1641 237.162 55 267 55C384.084 55 479 149.916 479 267C479 278.781 478.039 290.337 476.191 301.595C457.434 306.429 437.767 309 417.5 309C287.989 309 183 204.011 183 74.5C183 73.762 183.003 73.0247 183.01 72.2883Z" fill="url(#paint1_linear_906_2612)"/>
<path d="M363.419 93.431C360.83 93.4876 358.837 93.4457 357.743 94.916C356.649 96.3863 353.285 104.732 354.941 107.111C356.598 109.49 364.025 111.022 364.025 111.022C364.025 111.022 364.62 115.081 366.806 116.618C368.993 118.154 372.385 118.967 372.385 118.967L380.435 115.827C380.435 115.827 378.831 100.349 376.437 97.423C374.048 94.4964 366.821 93.3548 363.414 93.4318L363.419 93.431Z" fill="#E6F2F8"/>
<path d="M330.189 103.818C320.341 100.367 304.256 105.274 288.87 112.973C273.485 120.672 246.671 115.197 246.671 115.197C246.671 115.197 230.563 129.688 235.276 134.437C242.025 141.239 248.78 130.196 250.338 130.834C261.303 135.348 280.519 138.436 289.856 137.768C301.456 136.941 306.453 136.199 306.453 136.199C306.453 136.199 304.075 146.475 298.083 149.616C292.087 152.763 284.964 156.38 284.964 156.38C284.964 156.38 280.135 172.019 282.839 173.387C290.956 177.485 292.628 166.103 295.784 166.491C304.765 167.589 324.037 159.43 331.551 150.347C339.065 141.263 340.253 136.129 342.107 129.39C343.962 122.651 344.931 108.983 330.183 103.814L330.189 103.818Z" fill="#BDDEF1"/>
<path d="M425.495 76.5009C427 81.5001 425.687 85.3157 422.639 87.4875C419.591 89.6592 417.111 90.0479 417.111 90.0479L413.076 80.5156C413.076 80.5156 416.688 77.2953 419.172 76.5365C421.657 75.7826 424.285 74.1494 425.5 76.5001L425.495 76.5009Z" fill="#E6F2F8"/>
<path d="M422.639 78.6715C423.092 80.1134 420.473 79.5289 419.5 82.0001C419.117 82.9699 419 88.0001 415 88.0001C413.049 87.024 410.731 82.0606 411.301 81.1906C411.871 80.3206 416.158 78.8594 416.864 78.6176C419.36 77.7661 422.151 77.1112 422.642 78.6731L422.639 78.6715Z" fill="white"/>
<path d="M413.532 79.7614C413.532 79.7614 409.299 81.318 395.594 85.2574C381.888 89.1969 369.58 79.7284 359.558 77.6085C349.536 75.4886 349.44 72.8162 341.5 74.0001C333.56 75.1839 330.848 78.6457 325.463 83.7883C321.284 88.5592 319.878 92.1074 311.195 98.879C311.19 98.8797 311.185 98.8805 311.175 98.8821C297.563 104.896 285.754 103.836 285.754 103.836C285.754 103.836 284.842 116.592 292.842 136.684C300.842 156.777 317.217 174.586 317.217 174.586C317.217 174.586 332.137 162.576 338.518 155.724C340.073 154.053 343.485 150.664 346.46 145.967C346.529 145.88 346.589 145.804 346.652 145.717C360.319 127.999 367.712 102.322 367.712 102.322C367.712 102.322 376.946 103.396 389.257 101.954C401.568 100.513 418.384 91.5939 418.384 91.5939L413.527 79.7622L413.532 79.7614Z" fill="url(#paint2_linear_906_2612)"/>
<path opacity="0.1" d="M347.035 95.1849C348.439 89.5698 347.006 84.8612 346.114 83.2088C342.195 86.9519 334.532 98.2108 335.232 113.301C335.933 128.392 345.379 138.336 350.014 141.422L353.085 136.597C350.497 132.78 346.332 129.085 344.708 117.163C343.392 107.512 345.279 102.204 347.035 95.1849Z" fill="#3381B3"/>
<path d="M380.478 61.6978C381.336 69.2689 377.111 76.4406 373.387 79.8991C369.663 83.3575 363.932 87.9364 359.383 86.7808C354.833 85.6251 348.917 81.8805 346.317 75.0495C343.971 68.8923 340.047 54.6607 350.564 47.9353C361.086 41.2091 379.054 49.1331 380.478 61.6978Z" fill="white"/>
<path d="M377.72 66.1419C377.72 66.1419 373.698 67.8582 366.198 68.1556C358.698 68.4531 352.265 65.5031 350.73 63.7313C349.194 61.9596 345.827 62.5539 345.595 65.8553C345.363 69.1567 345.918 70.8614 347.513 71.8025C349.109 72.7485 349.555 72.4527 349.555 72.4527C349.555 72.4527 345.965 77.2557 342.8 72.5873C339.635 67.9188 340.393 66.8296 340.393 66.8296C340.393 66.8296 338.513 71.9962 331.783 73.1741C325.053 74.3571 323.633 70.9296 323.693 70.1038C323.754 69.2781 327.65 72.8772 330.544 67.2694C334.635 59.3385 327.589 50.4423 336.387 43.591C343.84 37.7873 350.733 40.4599 353.098 42.2864C355.459 44.1188 355.671 45.1431 355.671 45.1431C355.671 45.1431 360.187 42.1259 367.5 44C374.813 45.8741 378.181 48 381.206 55.9213C384.231 63.8426 380.804 69.6731 379.918 70.4383C379.031 71.2035 377.733 66.1295 377.733 66.1295L377.72 66.1419Z" fill="#99CAE4"/>
<path fill-rule="evenodd" clip-rule="evenodd" d="M475.367 297.277C468.533 343.594 446.577 385.458 414.346 417.218C411.319 398.381 408.272 378.855 406.402 365.382C403.115 341.713 400.906 309.415 400.874 308.951L475.367 297.277ZM400.874 308.951C400.874 308.948 400.874 308.946 400.874 308.946L400.87 308.952L400.874 308.951Z" fill="url(#paint3_linear_906_2612)"/>
<path d="M322.533 100.405C319.943 100.487 317.952 100.46 316.87 101.939C315.787 103.418 312.495 111.793 314.175 114.159C315.854 116.524 323.292 117.992 323.292 117.992C323.292 117.992 323.922 122.046 326.121 123.565C328.325 125.083 331.723 125.865 331.723 125.865L339.748 122.657C339.748 122.657 338.007 107.195 335.591 104.288C333.175 101.386 325.936 100.303 322.534 100.41L322.533 100.405Z" fill="white"/>
<path d="M361.726 100.221C359.95 102.286 366.256 104.363 366.051 109.246C365.972 111.163 367.514 118.745 371.384 118.611C375.255 118.477 378.597 115.042 378.301 113.148C378.004 111.254 372.104 105.515 371.135 104.568C367.7 101.226 363.645 97.9851 361.721 100.222L361.726 100.221Z" fill="white"/>
<path d="M471.092 194.257C464.209 206.881 441.972 200.017 430.428 192.852C418.884 185.687 401.426 175.117 385.961 155.086C377.806 144.515 364.519 123.516 364.519 123.516L380.753 111.008C380.753 111.008 403.013 138.198 423.931 152.046C444.85 165.899 455.05 167.468 461.734 170.841C468.418 174.213 476.613 184.12 471.092 194.257Z" fill="#BDDEF1"/>
<path d="M462.771 131.924C465.78 114.891 435.619 101.655 424.297 111.074C420.337 114.369 415.078 121.697 413.939 126.321C413.402 128.495 414.898 128.707 414.425 130.368C413.594 133.291 404.84 137.938 407.057 141.107C407.758 142.111 410.267 143.705 410.215 143.995C409.461 148.256 407.219 155.476 409.728 158.153C412.682 161.309 421.973 160.942 423.226 163.8C424.48 166.658 427.29 183.539 427.29 183.539L452.642 174.345C452.642 174.345 450.742 155.273 452.346 151.166C454.039 146.83 460.816 143.001 462.772 131.929L462.771 131.924Z" fill="white"/>
<path d="M421.412 140.916L418.782 140.45L421.817 128.691C421.817 128.691 419.112 129.089 417.71 127.086C416.307 125.083 417.609 122.676 417.609 122.676C417.609 122.676 413.9 123.776 412.801 120.067C411.701 116.359 417.913 106.042 426.179 103.987C434.946 101.812 452.733 107.798 457.944 113.111C463.156 118.424 461.848 120.826 461.848 120.826C461.848 120.826 465.254 121.427 466.204 125.985C467.155 130.544 463.036 138.952 460.534 143.163C458.031 147.375 454.174 149.329 453.573 152.735C453.122 155.29 452.272 155.141 450.566 154.839C448.86 154.536 434.019 152.011 434.019 152.011L429.926 142.405C429.926 142.405 436.392 135.642 432.886 130.632C429.38 125.622 425.071 130.132 424.768 131.832C424.465 133.538 421.41 140.901 421.41 140.901L421.412 140.916Z" fill="#99CAE4"/>
<path d="M453.941 162.421C448.11 162.364 442.28 162.308 434.852 164.442C430.156 165.794 422.986 169.212 422.986 169.212C422.986 169.212 419.863 167.761 415.997 167.885C412.125 168.009 409.284 168.454 409.284 168.454C409.284 168.454 406.028 165.53 402.091 165.177C397.821 164.793 398.573 165.692 393.42 165.565C382.706 165.304 362.008 154.435 355.766 148.18C346.557 138.95 336.515 118.208 336.515 118.208L319.56 127.656C319.56 127.656 326.203 157.664 350.097 180.111C371.48 200.201 386.564 203.058 389.998 206.401C389.998 206.401 390.228 221.853 390.514 234.458C391.178 263.461 396.738 308.11 396.738 308.11C396.738 308.11 418.231 309.511 445.8 307.175C473.368 304.839 482.245 301.568 482.245 301.568C481.551 292.531 476.861 210.191 474.637 196.771C472.414 183.352 472.416 176.734 465.038 171.355C460.656 168.16 455.773 167.955 455.773 167.955L453.936 162.422L453.941 162.421Z" fill="url(#paint4_linear_906_2612)"/>
<path d="M331.345 137.542C331.345 137.542 333.415 150.111 341.488 148.139C345.227 147.223 346.01 143.852 345.773 140.5C345.499 136.622 343.861 132.768 343.861 132.768L331.345 137.542Z" fill="white"/>
<path d="M334.709 76.7436C323.398 79.9824 318.55 95.6693 322.18 112.605C325.81 129.546 330.418 139.889 330.418 139.889L345.146 134.143C345.146 134.143 338.531 115.129 340.242 105.503C341.459 98.6548 348.011 89.4278 346.475 83.3197C344.521 75.547 337.919 75.8173 334.703 76.7392L334.709 76.7436Z" fill="url(#paint5_linear_906_2612)"/>
<path d="M284.768 364.825H78.3005C73.0596 364.825 68.0103 360.537 67.0869 355.291L43.1468 219.534C42.2233 214.293 45.7549 210 50.9958 210H257.463C262.704 210 267.753 214.288 268.677 219.534L292.617 355.291C293.54 360.532 290.009 364.825 284.768 364.825Z" fill="#0061A0"/>
<path d="M274.812 354.77H84.8926C80.2951 354.77 75.8745 351.008 75.064 346.415L54.0809 227.407C53.2704 222.81 56.3697 219.052 60.9623 219.052H250.882C255.479 219.052 259.9 222.815 260.71 227.407L281.694 346.415C282.504 351.013 279.405 354.77 274.812 354.77Z" fill="url(#paint6_linear_906_2612)"/>
<path d="M394.257 354.77H72.21C69.4349 354.77 67.1852 357.02 67.1852 359.795V359.8C67.1852 362.575 69.4349 364.825 72.21 364.825H394.257C397.032 364.825 399.282 362.575 399.282 359.8V359.795C399.282 357.02 397.032 354.77 394.257 354.77Z" fill="#0061A0"/>
<path d="M173.653 354.77H69.2924C68.1286 354.77 67.1852 355.714 67.1852 356.878V362.718C67.1852 363.881 68.1286 364.825 69.2924 364.825H173.653C174.817 364.825 175.761 363.881 175.761 362.718V356.878C175.761 355.714 174.817 354.77 173.653 354.77Z" fill="#004E80"/>
<path fill-rule="evenodd" clip-rule="evenodd" d="M90.4801 385.936C85.8854 379.168 81.6717 372.121 77.8701 364.825H454.13C445.544 381.304 434.856 396.513 422.421 410.097V385.936H90.4801Z" fill="#B6D871"/>
<path d="M67 386L455 386V365L67 365V386Z" fill="#B6D871"/>
<path opacity="0.1" d="M371.5 372C371.5 364.4 366.833 357.5 364.5 355L386.5 354.5V386H363C365.833 384.5 371.5 379.6 371.5 372Z" fill="#0061A0"/>
<path d="M334.127 334C334.127 334 383.477 333.881 383.257 383.13C383.055 429.359 301.672 422.017 290.143 442.235C279.178 461.462 290.68 468.519 293.361 471.199C296.579 474.417 299.048 478.885 296.579 483.001C293.361 488.367 285.851 487.293 281.559 484.075C277.919 481.346 259.03 466.912 270.832 439.017C282.634 411.126 314.011 411.043 327.692 406.834C341.637 402.543 355.582 401.468 363.092 387.523C365.764 382.562 365.297 367.895 354.508 360.702C344.855 354.267 333.053 355.336 333.053 355.336L334.123 334H334.127Z" fill="url(#paint7_linear_906_2612)"/>
<path d="M278.024 353.958C231.504 349.05 184.848 361.446 173.201 350.631C149.135 328.286 170.067 230 262.327 230C354.587 230 361.423 333.582 352.065 348.135C344.577 359.782 295.077 355.759 278.024 353.958Z" fill="url(#paint8_radial_906_2612)"/>
<circle cx="223" cy="316" r="30" fill="#7F51B2"/>
<path fill-rule="evenodd" clip-rule="evenodd" d="M231.5 282.5C222.119 285.625 213.898 293.524 209.5 299.5C206.053 304.184 204.569 308.867 204.431 314.185C202.754 325.09 207.433 340.699 218.343 349.5C230.186 359.053 269.278 356.621 277.346 355.429C285.534 354.214 289.967 350.564 295.584 339.335C299.876 330.751 283.782 305.004 283.782 305.004C283.782 305.004 292.366 287.841 292.212 286.838C292.062 285.834 284.856 283.549 276.272 283.549C267.689 283.549 261.957 286.714 258.035 288.915L258.04 288.911C255.817 290.161 252.674 292.133 250.359 294.131C250.713 293.493 251.064 292.859 251.407 292.238C253.013 289.404 255.891 284.312 255.891 283.549C255.891 283.543 255.891 283.537 255.889 283.53C255.674 282.437 241.082 279.306 231.5 282.5Z" fill="#0191DB"/>
<path d="M283.782 305.009L281.638 302.865C280.564 301.791 277.346 299.647 277.346 299.647C277.346 299.647 281.638 293.212 285.93 289.994C290.222 286.776 292.044 285.706 292.216 286.847C292.37 287.85 290.512 292.644 288.078 297.504C285.318 303.006 283.786 305.013 283.786 305.013L283.782 305.009Z" fill="#0061A0"/>
<path d="M248.188 301.5C248.188 301.5 245 299.5 243 298.5C241 297.5 235.5 295.099 235.5 295.099C235.5 295.099 240 289 246.5 286C253 283 255.698 283.302 255.87 284.442C256.024 285.446 254.166 290.24 251.732 295.099C248.972 300.602 247.44 302.609 247.44 302.609L248.188 301.5Z" fill="#0061A0"/>
<path opacity="0.1" d="M245.166 361.758C249.757 358.155 249.603 344.69 238.423 341.501C227.244 338.313 219.882 337.119 212 330C204.094 322.86 194.604 306.573 178.5 314.5C157.363 324.905 184.486 350.217 184.486 350.217C184.486 350.217 186.85 354.339 206.553 355.987C212.328 356.472 224.679 355.987 226.256 357.636C234.791 366.565 242.018 364.231 245.17 361.758H245.166Z" fill="#0061A0"/>
<path d="M241 359.5C242.455 351.5 241.946 345.053 230.144 341.835C218.343 338.618 218.321 338.184 210 331C201.654 323.794 194.5 319 192.5 303C152 307.5 166.295 345.869 172.5 350C180.306 355.196 175.701 354.79 196.5 356.454C202.597 356.943 211.836 355.836 213.5 357.5C218.5 370.5 239.545 367.5 241 359.5Z" fill="#0090DA"/>
<defs>
<linearGradient id="paint0_linear_906_2612" x1="317.5" y1="184.5" x2="80.5995" y2="494.632" gradientUnits="userSpaceOnUse">
<stop stop-color="#CCE9F8"/>
<stop offset="1" stop-color="#EDF5DC"/>
</linearGradient>
<linearGradient id="paint1_linear_906_2612" x1="474.466" y1="-16.7559" x2="212.423" y2="326.291" gradientUnits="userSpaceOnUse">
<stop stop-color="#CCE9F8"/>
<stop offset="1" stop-color="#EDF5DC"/>
</linearGradient>
<linearGradient id="paint2_linear_906_2612" x1="344.096" y1="79.3484" x2="363.411" y2="162.47" gradientUnits="userSpaceOnUse">
<stop stop-color="#E6EFF6"/>
<stop offset="0.418391" stop-color="white"/>
</linearGradient>
<linearGradient id="paint3_linear_906_2612" x1="495.901" y1="294.054" x2="517.816" y2="433.9" gradientUnits="userSpaceOnUse">
<stop stop-color="#CDE9F8"/>
<stop offset="1" stop-color="#CDE9F8"/>
</linearGradient>
<linearGradient id="paint4_linear_906_2612" x1="442.311" y1="163.012" x2="407.957" y2="256.24" gradientUnits="userSpaceOnUse">
<stop stop-color="#E6EFF6"/>
<stop offset="0.418391" stop-color="white"/>
</linearGradient>
<linearGradient id="paint5_linear_906_2612" x1="340.061" y1="79.0848" x2="324.425" y2="131.322" gradientUnits="userSpaceOnUse">
<stop stop-color="#E6EFF6"/>
<stop offset="0.418391" stop-color="white"/>
</linearGradient>
<linearGradient id="paint6_linear_906_2612" x1="53.9999" y1="219" x2="112.882" y2="330.337" gradientUnits="userSpaceOnUse">
<stop stop-color="#CCE9F8"/>
<stop offset="1" stop-color="white"/>
</linearGradient>
<linearGradient id="paint7_linear_906_2612" x1="334.115" y1="486.593" x2="334.115" y2="345.593" gradientUnits="userSpaceOnUse">
<stop stop-color="#0090DA"/>
<stop offset="1" stop-color="#0061A0"/>
</linearGradient>
<radialGradient id="paint8_radial_906_2612" cx="0" cy="0" r="1" gradientUnits="userSpaceOnUse" gradientTransform="translate(260 352.5) rotate(-90) scale(103 92.2235)">
<stop stop-color="#0061A0"/>
<stop offset="1" stop-color="#0090DA"/>
</radialGradient>
</defs>
</svg>
