<svg width="359" height="360" viewBox="0 0 359 360" fill="none" xmlns="http://www.w3.org/2000/svg">
<g clip-path="url(#clip0_285_2930)">
<circle cx="304" cy="-174" r="481" fill="url(#paint0_linear_285_2930)"/>
<circle cx="304" cy="-174" r="254" fill="#EDF5DC"/>
<path d="M278.68 171H253.719V181.072V181.129V186.096V191.12H268.632V186.096H273.656V181.129H278.68V171Z" fill="#333333"/>
<path d="M269 176H264V181H269V176Z" fill="white"/>
<path d="M177.883 164.925H257.867L271.93 236.798C271.93 238.795 270.306 240.409 268.319 240.409H195.553C193.556 240.409 191.942 238.785 191.942 236.798L177.88 164.925H177.883Z" fill="url(#paint1_linear_285_2930)"/>
<path d="M257.868 164.925H177.884L175.423 153.443C175.423 151.446 176.696 149.832 178.682 149.832H251.448C253.445 149.832 254.883 150.887 255.41 153.443L257.871 164.925H257.868Z" fill="#0061A0"/>
<path d="M115.288 129.009L109.205 132.521L210.794 308.479L216.877 304.967L115.288 129.009Z" fill="#83A53E"/>
<path d="M225.006 247.863L221.494 241.78L116.047 302.66L119.559 308.743L225.006 247.863Z" fill="#83A53E"/>
<path d="M202.539 129.262H108.89C109.487 194.498 162.236 247.261 227.465 247.883H321.16C255.91 247.285 203.137 194.512 202.539 129.262Z" fill="url(#paint2_linear_285_2930)"/>
<path d="M203.473 129.008L197.39 132.52L299.018 308.545L305.101 305.033L203.473 129.008Z" fill="#B6D871"/>
<path d="M306.168 247.86L302.656 241.776L197.208 302.656L200.72 308.74L306.168 247.86Z" fill="#B6D871"/>
<path d="M70.2061 73.0723V80.093H86.4342V308.419H93.4584V80.093H110.414V73.0723H70.2061Z" fill="#0061A0"/>
<path d="M78.4186 68.3894C55.785 68.3894 50.3252 112.092 50.3252 136.287V258.387H93.5252V202.271H101.052C101.052 202.271 99.2135 115.186 94.8084 94.9218C90.9061 76.971 86.2232 68.3894 78.4186 68.3894Z" fill="white"/>
<path opacity="0.2" d="M93.5213 202.272H75.6865L69.833 116.775V209.644H93.458L93.5213 202.272Z" fill="#0061A0"/>
<path d="M101.052 202.271L100.76 190.684H74.8921L75.6866 202.271H101.052Z" fill="url(#paint3_linear_285_2930)"/>
<path d="M86.7295 123.746L83.9451 119.5L75.8767 107.191L74.8783 107.838L73.8798 107.191L65.8185 119.489L63.0377 123.732C57.0927 133.109 59.6838 145.016 69.0564 151.443L70.4099 149.491C62.1131 143.8 59.8068 133.274 65.0451 125.009L67.7978 120.807C69.3377 118.536 71.9849 117.183 74.8783 117.183C77.7787 117.183 80.4295 118.54 81.9658 120.818L84.7256 125.026C89.9533 133.277 87.647 143.8 79.3502 149.491L80.7037 151.443C90.0763 145.016 92.6674 133.109 86.733 123.746H86.7295ZM74.8748 110.004L78.4009 115.383C77.283 115.021 76.0982 114.81 74.8748 114.81C73.6513 114.81 72.4666 115.017 71.3486 115.383L74.8748 110.004Z" fill="#E1E2E0"/>
<path d="M89.7773 73.0758C89.7773 69.4828 86.8347 66.5578 83.2207 66.5578C79.6066 66.5578 76.664 69.4828 76.664 73.0758V107.307L79.0336 110.925C79.5714 111.748 79.3394 112.848 78.5132 113.386C77.6836 113.92 76.5797 113.692 76.0382 112.866L74.8746 111.09L73.7144 112.862C73.1765 113.685 72.0656 113.917 71.2394 113.382C70.4132 112.845 70.1777 111.744 70.7191 110.921L73.0886 107.307V73.0758C73.0886 67.5211 77.6343 63 83.2207 63C88.807 63 93.3527 67.5176 93.3527 73.0758H89.7773Z" fill="#A5CF4F"/>
<path d="M84.0256 149.752L81.301 146.591C81.1498 146.415 80.8861 146.398 80.7104 146.545L77.8486 148.985C76.794 149.882 76.6744 151.46 77.5779 152.508C78.4814 153.555 80.067 153.675 81.1182 152.778L83.9799 150.339C84.1557 150.187 84.1768 149.927 84.0256 149.752Z" fill="#0066A6"/>
<path d="M65.7236 149.752L68.4482 146.591C68.5994 146.415 68.863 146.398 69.0388 146.545L71.9005 148.985C72.9552 149.882 73.0748 151.46 72.1713 152.508C71.2677 153.555 69.6822 153.675 68.631 152.778L65.7693 150.339C65.5935 150.187 65.5724 149.927 65.7236 149.752Z" fill="#0066A6"/>
<path d="M263 171H246V176H263V171Z" fill="#333333"/>
<path d="M246 176H241V181H246V176Z" fill="#333333"/>
</g>
<defs>
<linearGradient id="paint0_linear_285_2930" x1="136" y1="10.5" x2="-83.5" y2="378.5" gradientUnits="userSpaceOnUse">
<stop stop-color="#CCE9F8"/>
<stop offset="1" stop-color="#EDF5DC"/>
</linearGradient>
<linearGradient id="paint1_linear_285_2930" x1="177.88" y1="192.821" x2="271.78" y2="192.821" gradientUnits="userSpaceOnUse">
<stop stop-color="#F2F2F2"/>
<stop offset="0.493638" stop-color="white"/>
</linearGradient>
<linearGradient id="paint2_linear_285_2930" x1="215.025" y1="129.262" x2="215.025" y2="247.883" gradientUnits="userSpaceOnUse">
<stop stop-color="#E8E9E7"/>
<stop offset="0.0001" stop-color="#0061A0"/>
<stop offset="1" stop-color="#0090DA"/>
</linearGradient>
<linearGradient id="paint3_linear_285_2930" x1="101" y1="196.684" x2="78.0208" y2="188.352" gradientUnits="userSpaceOnUse">
<stop stop-color="#BADDF5"/>
<stop offset="0.0106" stop-color="#BBDEF5"/>
<stop offset="0.225" stop-color="#D3E7F4"/>
<stop offset="0.4511" stop-color="#E5EDF3"/>
<stop offset="0.6965" stop-color="#EFF1F2"/>
<stop offset="0.9944" stop-color="#F2F2F2"/>
</linearGradient>
<clipPath id="clip0_285_2930">
<rect width="360" height="360" fill="white"/>
</clipPath>
</defs>
</svg>
