<svg width="534" height="534" viewBox="0 0 534 534" fill="none" xmlns="http://www.w3.org/2000/svg">
<circle cx="267" cy="267" r="212" fill="url(#paint0_linear_285_3070)"/>
<path d="M132.515 145.447V155.516H155.791V483H165.865V155.516H190.185V145.447H132.515Z" fill="#0061A0"/>
<path d="M144.294 138.73C111.831 138.73 104 201.412 104 236.114V419H165.961V322.755H176.757C176.757 322.755 174.12 205.849 167.802 176.785C162.204 151.038 155.488 138.73 144.294 138.73Z" fill="white"/>
<path opacity="0.2" d="M165.955 322.755H140.375L131.98 208.129V333.329H165.865L165.955 322.755Z" fill="#0061A0"/>
<path d="M176.756 322.755L176.338 306.135H139.236L140.375 322.755H176.756Z" fill="url(#paint1_linear_285_3070)"/>
<path d="M156.214 218.128L152.22 212.036L140.648 194.383L139.216 195.311L137.784 194.383L126.222 212.021L122.233 218.108C113.706 231.556 117.423 248.634 130.866 257.852L132.807 255.053C120.907 246.89 117.599 231.793 125.112 219.938L129.061 213.912C131.269 210.655 135.066 208.714 139.216 208.714C143.376 208.714 147.178 210.66 149.381 213.927L153.34 219.963C160.838 231.798 157.53 246.89 145.63 255.053L147.571 257.852C161.014 248.634 164.731 231.556 156.219 218.128H156.214ZM139.211 198.417L144.268 206.132C142.665 205.612 140.966 205.31 139.211 205.31C137.456 205.31 135.757 205.607 134.153 206.132L139.211 198.417Z" fill="#E1E2E0"/>
<path d="M160.586 145.452C160.586 140.298 156.365 136.103 151.182 136.103C145.998 136.103 141.777 140.298 141.777 145.452V194.549L145.176 199.738C145.948 200.918 145.615 202.496 144.43 203.268C143.24 204.034 141.656 203.706 140.88 202.521L139.211 199.975L137.547 202.516C136.775 203.696 135.182 204.029 133.997 203.263C132.812 202.491 132.474 200.913 133.251 199.733L136.649 194.549V145.452C136.649 137.485 143.169 131 151.182 131C159.194 131 165.714 137.479 165.714 145.452H160.586Z" fill="#A5CF4F"/>
<path d="M152.336 255.426L148.428 250.893C148.211 250.641 147.833 250.616 147.581 250.828L143.476 254.327C141.964 255.613 141.792 257.877 143.088 259.38C144.384 260.882 146.658 261.054 148.166 259.768L152.27 256.269C152.522 256.052 152.553 255.679 152.336 255.426Z" fill="#0066A6"/>
<path d="M126.086 255.426L129.993 250.893C130.21 250.641 130.588 250.616 130.841 250.828L134.945 254.327C136.458 255.613 136.629 257.877 135.333 259.38C134.037 260.882 131.763 261.054 130.256 259.768L126.151 256.269C125.899 256.052 125.869 255.679 126.086 255.426Z" fill="#0066A6"/>
<path fill-rule="evenodd" clip-rule="evenodd" d="M453.457 166.029C426.641 183.71 394.522 194 360 194C281.088 194 214.733 140.232 195.573 67.3337C217.89 59.3491 241.937 55 267 55C347.528 55 417.57 99.8992 453.457 166.029Z" fill="#EDF5DC"/>
<path d="M434.393 284.443H398.465V298.941V299.022V306.172V313.403H419.931V306.172H427.162V299.022H434.393V284.443Z" fill="#333333"/>
<path d="M420.46 291.64H413.263V298.837H420.46V291.64Z" fill="white"/>
<path d="M289.308 275.699H404.436L424.677 379.152C424.677 382.026 422.339 384.349 419.48 384.349H314.742C311.867 384.349 309.545 382.011 309.545 379.152L289.303 275.699H289.308Z" fill="url(#paint2_linear_285_3070)"/>
<path d="M404.437 275.699H289.309L285.767 259.172C285.767 256.297 287.599 253.975 290.458 253.975H395.196C398.071 253.975 400.14 255.493 400.899 259.172L404.442 275.699H404.437Z" fill="#0061A0"/>
<path d="M199.209 224.001L190.453 229.057L336.679 482.327L345.435 477.272L199.209 224.001Z" fill="#83A53E"/>
<path d="M357.136 395.078L352.081 386.322L200.302 473.952L205.357 482.708L357.136 395.078Z" fill="#83A53E"/>
<path d="M324.797 224.366H190C190.86 318.266 266.785 394.211 360.675 395.107H495.538C401.618 394.247 325.657 318.286 324.797 224.366Z" fill="url(#paint3_linear_285_3070)"/>
<path d="M326.142 224L317.386 229.055L463.667 482.422L472.423 477.367L326.142 224Z" fill="#B6D871"/>
<path d="M473.959 395.073L468.904 386.317L317.125 473.947L322.18 482.703L473.959 395.073Z" fill="#B6D871"/>
<path d="M411.824 284.443H387.354V291.64H411.824V284.443Z" fill="#333333"/>
<path d="M387.354 291.64H380.157V298.837H387.354V291.64Z" fill="#333333"/>
<defs>
<linearGradient id="paint0_linear_285_3070" x1="243" y1="281" x2="72.5" y2="509" gradientUnits="userSpaceOnUse">
<stop stop-color="#CCE9F8"/>
<stop offset="1" stop-color="#EDF5DC"/>
</linearGradient>
<linearGradient id="paint1_linear_285_3070" x1="176.682" y1="314.74" x2="143.723" y2="302.79" gradientUnits="userSpaceOnUse">
<stop stop-color="#BADDF5"/>
<stop offset="0.0106" stop-color="#BBDEF5"/>
<stop offset="0.225" stop-color="#D3E7F4"/>
<stop offset="0.4511" stop-color="#E5EDF3"/>
<stop offset="0.6965" stop-color="#EFF1F2"/>
<stop offset="0.9944" stop-color="#F2F2F2"/>
</linearGradient>
<linearGradient id="paint2_linear_285_3070" x1="289.303" y1="315.852" x2="424.461" y2="315.852" gradientUnits="userSpaceOnUse">
<stop stop-color="#F2F2F2"/>
<stop offset="0.493638" stop-color="white"/>
</linearGradient>
<linearGradient id="paint3_linear_285_3070" x1="342.769" y1="224.366" x2="342.769" y2="395.107" gradientUnits="userSpaceOnUse">
<stop stop-color="#E8E9E7"/>
<stop offset="0.0001" stop-color="#0061A0"/>
<stop offset="1" stop-color="#0090DA"/>
</linearGradient>
</defs>
</svg>
