<svg width="24" height="24" viewBox="0 0 24 24" fill="none" xmlns="http://www.w3.org/2000/svg">
<path fill-rule="evenodd" clip-rule="evenodd" d="M15.9 1.5H8.02502C6.58127 1.5 5.40002 2.68125 5.40002 4.125V19.875C5.40002 21.3188 6.58127 22.5 8.02502 22.5H15.9C17.3438 22.5 18.525 21.3188 18.525 19.875V4.125C18.525 2.68125 17.3438 1.5 15.9 1.5ZM6.71252 5.4375H17.2125V17.25H6.71252V5.4375ZM13.275 2.8125H10.65V3.8625H13.275V2.8125ZM13.4063 19.875C13.4063 20.6724 12.7599 21.3188 11.9625 21.3188C11.1652 21.3188 10.5188 20.6724 10.5188 19.875C10.5188 19.0776 11.1652 18.4313 11.9625 18.4313C12.7599 18.4313 13.4063 19.0776 13.4063 19.875Z" fill="#007ABC"/>
</svg>
