<svg width="360" height="360" viewBox="0 0 360 360" fill="none" xmlns="http://www.w3.org/2000/svg">
<g clip-path="url(#clip0_285_3789)">
<circle cx="110" cy="33" r="274" fill="url(#paint0_linear_285_3789)"/>
<circle opacity="0.4" cx="85.5" cy="164.5" r="39.5" fill="#EEF6DD"/>
<path d="M279.692 84.671C279.692 61.4057 236.392 50.9689 223.511 66.0649C219.009 71.3454 214.163 83.4906 213.725 89.8894C213.538 92.9023 215.32 92.8092 215.32 95.1388C215.32 100.947 206.941 107.75 210.63 111.415C211.787 112.564 214.132 113.341 214.132 113.745C214.132 119.553 212.506 131.699 216.477 134.68C221.166 138.159 232.359 133.904 234.672 137.383C237.017 140.862 238.174 149 238.174 149L278.128 143.191C278.128 143.191 269.093 118.404 270.281 112.564C271.563 106.445 279.692 99.7981 279.692 84.671Z" fill="white"/>
<path d="M226.393 107.259H222.808L224.075 90.9821C224.075 90.9821 220.614 92.1314 218.297 89.8329C215.979 87.5032 217.153 84.0243 217.153 84.0243C217.153 84.0243 212.518 86.3539 210.2 81.6946C207.882 77.0353 213.661 61.9392 224.075 57.28C235.108 52.3411 259.923 56.1307 268.019 61.9392C276.116 67.7478 274.972 71.2268 274.972 71.2268C274.972 71.2268 279.608 71.2268 281.925 77.0353C284.243 82.8439 280.782 94.927 278.464 101.108C276.147 107.259 271.511 110.769 271.511 115.397C271.511 118.876 270.368 118.876 268.05 118.876C265.732 118.876 245.615 119 245.615 119L237.982 107.259C237.982 107.259 244.935 96.7907 239.125 90.9821C233.346 85.1736 228.711 92.1314 228.711 94.4611C228.711 96.7907 226.393 107.259 226.393 107.259Z" fill="url(#paint1_linear_285_3789)"/>
<path d="M56 90.2712H193.219V172.008C193.219 174.268 191.361 176.126 189.101 176.126H60.1178C57.8577 176.126 56 174.268 56 172.008V90.2712Z" fill="url(#paint2_linear_285_3789)"/>
<path d="M193.219 90.2712H56V77.2057C56 74.9456 57.8577 73.0879 60.1178 73.0879H189.132C191.392 73.0879 193.25 74.9456 193.25 77.2057V90.2712H193.219Z" fill="#0061A0"/>
<path d="M66.7435 83.8005C67.9233 83.8005 68.8798 82.844 68.8798 81.6641C68.8798 80.4843 67.9233 79.5278 66.7435 79.5278C65.5636 79.5278 64.6072 80.4843 64.6072 81.6641C64.6072 82.844 65.5636 83.8005 66.7435 83.8005Z" fill="white"/>
<path d="M75.3197 83.8005C76.4995 83.8005 77.456 82.844 77.456 81.6641C77.456 80.4843 76.4995 79.5278 75.3197 79.5278C74.1398 79.5278 73.1833 80.4843 73.1833 81.6641C73.1833 82.844 74.1398 83.8005 75.3197 83.8005Z" fill="white"/>
<path d="M83.8958 83.8005C85.0757 83.8005 86.0321 82.844 86.0321 81.6641C86.0321 80.4843 85.0757 79.5278 83.8958 79.5278C82.716 79.5278 81.7595 80.4843 81.7595 81.6641C81.7595 82.844 82.716 83.8005 83.8958 83.8005Z" fill="white"/>
<path fill-rule="evenodd" clip-rule="evenodd" d="M123.344 175.855H60.1178C57.8577 175.855 56 173.997 56 171.737V138.232C63.2345 130.113 73.7701 125 85.5 125C107.315 125 125 142.685 125 164.5C125 168.447 124.421 172.259 123.344 175.855Z" fill="#E6F4FB"/>
<path d="M231.692 97.0398C231.692 97.0398 224.572 96.0155 224.572 104.365C224.572 120.568 224.572 144.902 224.572 170.572C224.572 209.464 193.254 241 154.632 241C116.009 241 84.6919 209.464 84.6919 170.572C84.6919 167.251 84.6919 160.919 84.6919 160.919" stroke="#7F51B2" stroke-width="1.79" stroke-miterlimit="10"/>
<path d="M101.791 114.359H97.6116V118.539H101.791V114.359Z" fill="#0061A0"/>
<path d="M97.6116 110.21H93.4319V114.39H97.6116V110.21Z" fill="#0061A0"/>
<path d="M114.3 110.21H110.12V114.39H114.3V110.21Z" fill="#0061A0"/>
<path d="M97.6116 126.898H93.4319V131.078H97.6116V126.898Z" fill="#0061A0"/>
<path d="M114.3 126.898H110.12V131.078H114.3V126.898Z" fill="#0061A0"/>
<path d="M110.12 114.359H105.94V118.539H110.12V114.359Z" fill="#0061A0"/>
<path d="M105.971 118.539H101.791V122.719H105.971V118.539Z" fill="#0061A0"/>
<path d="M110.12 122.719H105.94V126.898H110.12V122.719Z" fill="#0061A0"/>
<path d="M101.791 122.719H97.6116V126.898H101.791V122.719Z" fill="#0061A0"/>
<path d="M139.316 143.555H110.12V147.735H139.316V143.555Z" fill="#0061A0"/>
<path d="M147.676 151.915H143.496V156.094H147.676V151.915Z" fill="#0061A0"/>
<path d="M143.496 147.735H139.316V151.915H143.496V147.735Z" fill="#0061A0"/>
<path d="M105.971 151.915H101.791V156.094H105.971V151.915Z" fill="#0061A0"/>
<path d="M110.12 147.735H105.94V151.915H110.12V147.735Z" fill="#0061A0"/>
<path d="M143.496 114.359H139.316V118.539H143.496V114.359Z" fill="#0061A0"/>
<path d="M139.316 110.21H135.136V114.39H139.316V110.21Z" fill="#0061A0"/>
<path d="M156.004 110.21H151.824V114.39H156.004V110.21Z" fill="#0061A0"/>
<path d="M139.316 126.898H135.136V131.078H139.316V126.898Z" fill="#0061A0"/>
<path d="M156.004 126.898H151.824V131.078H156.004V126.898Z" fill="#0061A0"/>
<path d="M151.824 114.359H147.645V118.539H151.824V114.359Z" fill="#0061A0"/>
<path d="M147.676 118.539H143.496V122.719H147.676V118.539Z" fill="#0061A0"/>
<path d="M151.824 122.719H147.645V126.898H151.824V122.719Z" fill="#0061A0"/>
<path d="M143.496 122.719H139.316V126.898H143.496V122.719Z" fill="#0061A0"/>
<path d="M276.134 129L283 145L234 150.5L232 145C232 145 232.5 143 240 136.5C250.586 127.325 276.134 129 276.134 129Z" fill="#B6D871"/>
<path d="M278.826 132L284.692 145.414L230.692 151C230.692 151 233.86 144.428 240.792 139.827C252.524 132 278.826 132 278.826 132Z" fill="url(#paint3_linear_285_3789)"/>
<path d="M85.1919 175C90.4386 175 94.6919 170.747 94.6919 165.5C94.6919 160.253 90.4386 156 85.1919 156C79.9452 156 75.6919 160.253 75.6919 165.5C75.6919 170.747 79.9452 175 85.1919 175Z" fill="#7F51B2"/>
<path d="M85 170C87.7614 170 90 167.761 90 165C90 162.239 87.7614 160 85 160C82.2386 160 80 162.239 80 165C80 167.761 82.2386 170 85 170Z" fill="#39165F"/>
<path d="M113.764 174.433L105.975 151.99C105.975 151.99 94.4153 144.128 88.1293 146.418C82.5793 148.461 76.6919 160.256 76.6919 160.256L88.4053 166.602C88.4053 166.602 95.0899 178.798 98.4015 182.76C101.621 186.568 113.764 197 113.764 197L125.692 183.318L113.764 174.433Z" fill="white"/>
<path d="M235.813 95.0003C235.813 95.0003 236.386 96.4824 235.526 97.7407C234.602 99.0829 232.689 98.999 232.689 98.999C232.689 98.999 231.542 98.999 231 98.244V96.2586C231.861 94.9444 235.813 95.0003 235.813 95.0003Z" fill="#7F51B2"/>
<path d="M199.061 167.259C203.597 160.49 205.989 155.235 217.982 152.67C232.646 149.579 270.176 145.035 277.85 145.035C285.524 145.035 296.988 143.768 307.179 156.441C317.369 169.113 320.228 190.07 322.775 206.575C325.323 223.08 331.692 294 331.692 294H192.692C192.692 294 192.692 207.317 192.692 194.242C192.692 181.168 195.177 173.101 199.061 167.259Z" fill="white"/>
<path d="M225.692 151C222.963 151.465 220.52 151.899 218.521 152.302C206.273 154.844 203.829 160.144 199.197 166.933C195.199 172.791 192.692 180.944 192.692 194.025C192.692 207.106 192.692 270 192.692 270H225.692V151Z" fill="white"/>
<path d="M234.297 157.564C249.937 173.188 233.613 198.194 220.274 209.874C203.017 224.97 183.334 242.179 164.865 240.936C144.156 239.539 101.5 196 101.5 196L118.788 175.157L165.549 201.859C165.549 201.859 188.745 175.176 197.482 164.087C204.478 155.234 222.388 145.667 234.297 157.564Z" fill="white"/>
<path d="M119 175L101 196.5L105 200L124 178L119 175Z" fill="#B6D871"/>
<path d="M123.129 177.5L104.5 199.5L117.5 211L137.5 185.869L123.129 177.5Z" fill="url(#paint4_linear_285_3789)"/>
<path opacity="0.1" d="M240.63 174C240.566 187.415 229.467 202.215 219.854 210.369C211.254 217.692 202.052 225.538 192.692 231.477V242C199.649 237.292 210.937 228.892 218.305 222.123C230.163 211.2 241.641 190.892 240.63 174Z" fill="#3381B3"/>
</g>
<defs>
<linearGradient id="paint0_linear_285_3789" x1="223.56" y1="-208.939" x2="-63.0969" y2="245.127" gradientUnits="userSpaceOnUse">
<stop stop-color="#DBEBB8"/>
<stop offset="1" stop-color="#CCE9F8"/>
</linearGradient>
<linearGradient id="paint1_linear_285_3789" x1="246" y1="55" x2="244" y2="103.5" gradientUnits="userSpaceOnUse">
<stop stop-color="#0073AE"/>
<stop offset="1" stop-color="#0061A0"/>
</linearGradient>
<linearGradient id="paint2_linear_285_3789" x1="56" y1="122" x2="193" y2="122" gradientUnits="userSpaceOnUse">
<stop stop-color="#F2F2F2"/>
<stop offset="0.493638" stop-color="white"/>
</linearGradient>
<linearGradient id="paint3_linear_285_3789" x1="251.698" y1="134.043" x2="252.424" y2="152.057" gradientUnits="userSpaceOnUse">
<stop stop-color="#BADDF5"/>
<stop offset="0.0106" stop-color="#BBDEF5"/>
<stop offset="0.225" stop-color="#D3E7F4"/>
<stop offset="0.4511" stop-color="#E5EDF3"/>
<stop offset="0.6965" stop-color="#EFF1F2"/>
<stop offset="0.9944" stop-color="#F2F2F2"/>
</linearGradient>
<linearGradient id="paint4_linear_285_3789" x1="118.364" y1="181.156" x2="121.848" y2="213.062" gradientUnits="userSpaceOnUse">
<stop stop-color="#BADDF5"/>
<stop offset="0.0106" stop-color="#BBDEF5"/>
<stop offset="0.225" stop-color="#D3E7F4"/>
<stop offset="0.4511" stop-color="#E5EDF3"/>
<stop offset="0.6965" stop-color="#EFF1F2"/>
<stop offset="0.9944" stop-color="#F2F2F2"/>
</linearGradient>
<clipPath id="clip0_285_3789">
<rect width="360" height="360" fill="white"/>
</clipPath>
</defs>
</svg>
