<svg width="534" height="534" viewBox="0 0 534 534" fill="none" xmlns="http://www.w3.org/2000/svg">
<g clip-path="url(#clip0_285_3609)">
<circle cx="267" cy="267" r="212" fill="url(#paint0_linear_285_3609)"/>
<ellipse opacity="0.4" cx="151" cy="260.5" rx="67" ry="67.5" fill="#EEF6DD"/>
<path d="M479 124.355C479 85.0629 406.008 67.4363 384.295 92.9319C376.706 101.85 368.537 122.362 367.799 133.169C367.483 138.257 370.487 138.1 370.487 142.034C370.487 151.844 356.363 163.333 362.582 169.523C364.532 171.464 368.484 172.776 368.484 173.458C368.484 183.268 365.744 203.78 372.437 208.816C380.342 214.691 399.21 207.504 403.109 213.38C407.062 219.255 409.012 233 409.012 233L476.363 223.19C476.363 223.19 461.134 181.327 463.137 171.464C465.298 161.13 479 149.903 479 124.355Z" fill="white"/>
<path d="M389.141 163.186H383.101L385.235 135.72C385.235 135.72 379.404 137.659 375.498 133.78C371.593 129.849 373.572 123.978 373.572 123.978C373.572 123.978 365.762 127.91 361.856 120.047C357.951 112.185 367.688 86.71 385.235 78.8474C403.824 70.5131 445.635 76.908 459.278 86.71C472.92 96.512 470.993 102.383 470.993 102.383C470.993 102.383 478.803 102.383 482.709 112.185C486.614 121.987 480.782 142.377 476.877 152.808C472.972 163.186 465.161 169.109 465.161 176.92C465.161 182.79 463.235 182.79 459.33 182.79C455.424 182.79 421.527 183 421.527 183L408.666 163.186C408.666 163.186 420.382 145.522 410.593 135.72C400.856 125.918 393.046 137.659 393.046 141.591C393.046 145.522 389.141 163.186 389.141 163.186Z" fill="url(#paint1_linear_285_3609)"/>
<path d="M100.951 134.539H333.038V272.786C333.038 276.609 329.896 279.751 326.073 279.751H107.916C104.093 279.751 100.951 276.609 100.951 272.786V134.539Z" fill="url(#paint2_linear_285_3609)"/>
<path d="M333.038 134.539H100.951V112.441C100.951 108.618 104.093 105.476 107.916 105.476H326.125C329.948 105.476 333.09 108.618 333.09 112.441V134.539H333.038Z" fill="#0061A0"/>
<path d="M119.122 123.595C121.117 123.595 122.735 121.977 122.735 119.981C122.735 117.986 121.117 116.368 119.122 116.368C117.126 116.368 115.508 117.986 115.508 119.981C115.508 121.977 117.126 123.595 119.122 123.595Z" fill="white"/>
<path d="M133.627 123.595C135.623 123.595 137.241 121.977 137.241 119.981C137.241 117.986 135.623 116.368 133.627 116.368C131.632 116.368 130.014 117.986 130.014 119.981C130.014 121.977 131.632 123.595 133.627 123.595Z" fill="white"/>
<path d="M148.133 123.595C150.128 123.595 151.746 121.977 151.746 119.981C151.746 117.986 150.128 116.368 148.133 116.368C146.137 116.368 144.52 117.986 144.52 119.981C144.52 121.977 146.137 123.595 148.133 123.595Z" fill="white"/>
<path fill-rule="evenodd" clip-rule="evenodd" d="M214.853 279.292H107.916C104.093 279.292 100.951 276.15 100.951 272.327V215.657C113.187 201.926 131.007 193.278 150.846 193.278C187.743 193.278 217.655 223.189 217.655 260.086C217.655 266.762 216.676 273.209 214.853 279.292Z" fill="#E6F4FB"/>
<path d="M398 146.067C398 146.067 385.939 144.332 385.939 158.48C385.939 185.934 385.939 227.168 385.939 270.663C385.939 336.564 332.891 390 267.469 390C202.048 390 149 336.564 149 270.663C149 265.036 149 254.307 149 254.307" stroke="#7F51B2" stroke-width="1.79" stroke-miterlimit="10"/>
<path d="M178.4 175.28H171.331V182.349H178.4V175.28Z" fill="#0061A0"/>
<path d="M171.331 168.263H164.261V175.332H171.331V168.263Z" fill="#0061A0"/>
<path d="M199.556 168.263H192.487V175.332H199.556V168.263Z" fill="#0061A0"/>
<path d="M171.331 196.488H164.261V203.558H171.331V196.488Z" fill="#0061A0"/>
<path d="M199.556 196.488H192.487V203.558H199.556V196.488Z" fill="#0061A0"/>
<path d="M192.487 175.28H185.417V182.349H192.487V175.28Z" fill="#0061A0"/>
<path d="M185.47 182.349H178.4V189.419H185.47V182.349Z" fill="#0061A0"/>
<path d="M192.487 189.419H185.417V196.488H192.487V189.419Z" fill="#0061A0"/>
<path d="M178.4 189.419H171.331V196.488H178.4V189.419Z" fill="#0061A0"/>
<path d="M241.868 224.661H192.487V231.731H241.868V224.661Z" fill="#0061A0"/>
<path d="M256.007 238.8H248.938V245.869H256.007V238.8Z" fill="#0061A0"/>
<path d="M248.938 231.731H241.868V238.8H248.938V231.731Z" fill="#0061A0"/>
<path d="M185.47 238.8H178.4V245.869H185.47V238.8Z" fill="#0061A0"/>
<path d="M192.487 231.731H185.417V238.8H192.487V231.731Z" fill="#0061A0"/>
<path d="M248.938 175.28H241.868V182.349H248.938V175.28Z" fill="#0061A0"/>
<path d="M241.868 168.263H234.799V175.332H241.868V168.263Z" fill="#0061A0"/>
<path d="M270.093 168.263H263.024V175.332H270.093V168.263Z" fill="#0061A0"/>
<path d="M241.868 196.488H234.799V203.558H241.868V196.488Z" fill="#0061A0"/>
<path d="M270.093 196.488H263.024V203.558H270.093V196.488Z" fill="#0061A0"/>
<path d="M263.024 175.28H255.954V182.349H263.024V175.28Z" fill="#0061A0"/>
<path d="M256.007 182.349H248.938V189.419H256.007V182.349Z" fill="#0061A0"/>
<path d="M263.024 189.419H255.954V196.488H263.024V189.419Z" fill="#0061A0"/>
<path d="M248.938 189.419H241.868V196.488H248.938V189.419Z" fill="#0061A0"/>
<path d="M473.422 200.205L485 227.587L402.373 237L399 227.587C399 227.587 399.843 224.164 412.49 213.04C430.342 197.339 473.422 200.205 473.422 200.205Z" fill="#B6D871"/>
<path d="M478.115 205L488 228.297L397 238C397 238 402.339 226.585 414.021 218.594C433.791 205 478.115 205 478.115 205Z" fill="url(#paint3_linear_285_3609)"/>
<path d="M150.5 277C159.06 277 166 269.837 166 261C166 252.163 159.06 245 150.5 245C141.94 245 135 252.163 135 261C135 269.837 141.94 277 150.5 277Z" fill="#7F51B2"/>
<path d="M150 270C154.971 270 159 266.194 159 261.5C159 256.806 154.971 253 150 253C145.029 253 141 256.806 141 261.5C141 266.194 145.029 270 150 270Z" fill="#39165F"/>
<path d="M198.795 276.504L185.603 238.219C185.603 238.219 166.021 224.806 155.374 228.714C145.972 232.199 136 252.318 136 252.318L155.841 263.144C155.841 263.144 167.164 283.95 172.773 290.709C178.227 297.204 198.795 315 198.795 315L219 291.659L198.795 276.504Z" fill="white"/>
<path d="M405.7 143.001C405.7 143.001 406.618 145.224 405.241 147.111C403.762 149.124 400.703 148.998 400.703 148.998C400.703 148.998 398.867 148.998 398 147.866V144.888C399.377 142.917 405.7 143.001 405.7 143.001Z" fill="#7F51B2"/>
<path d="M342.768 263.795C350.437 252.301 354.481 243.379 374.756 239.023C399.548 233.775 462.999 226.06 475.973 226.06C488.947 226.06 508.329 223.908 525.557 245.426C542.786 266.944 547.618 302.527 551.925 330.553C556.232 358.579 567 479 567 479H332C332 479 332 331.813 332 309.613C332 287.412 336.202 273.714 342.768 263.795Z" fill="white"/>
<path d="M388 238C383.369 238.785 379.223 239.518 375.831 240.199C355.046 244.492 350.9 253.445 343.038 264.912C336.254 274.807 332 288.577 332 310.672C332 332.767 332 439 332 439H388V238Z" fill="white"/>
<path d="M402.204 248.44C428.609 274.949 401.049 317.374 378.528 337.19C349.392 362.803 316.162 392 284.98 389.892C250.017 387.521 178 313.652 178 313.652L207.188 278.289L286.134 323.593C286.134 323.593 325.297 278.322 340.048 259.507C351.86 244.487 382.098 228.255 402.204 248.44Z" fill="white"/>
<path d="M207.522 277L177 314.84L183.783 321L216 282.28L207.522 277Z" fill="#B6D871"/>
<path d="M214.177 281L182 318.433L204.455 338L239 295.24L214.177 281Z" fill="url(#paint4_linear_285_3609)"/>
<path opacity="0.1" d="M412.895 277C412.788 299.49 394.059 324.302 377.837 337.972C363.323 350.249 347.795 363.403 332 373.358V391C343.739 383.108 362.789 369.025 375.222 357.677C395.232 339.365 414.602 305.319 412.895 277Z" fill="#3381B3"/>
</g>
<defs>
<linearGradient id="paint0_linear_285_3609" x1="354.864" y1="79.8061" x2="133.071" y2="431.127" gradientUnits="userSpaceOnUse">
<stop stop-color="#DBEBB8"/>
<stop offset="1" stop-color="#CCE9F8"/>
</linearGradient>
<linearGradient id="paint1_linear_285_3609" x1="422.177" y1="75" x2="418.796" y2="156.843" gradientUnits="userSpaceOnUse">
<stop stop-color="#0073AE"/>
<stop offset="1" stop-color="#0061A0"/>
</linearGradient>
<linearGradient id="paint2_linear_285_3609" x1="100.951" y1="188.204" x2="332.667" y2="188.204" gradientUnits="userSpaceOnUse">
<stop stop-color="#F2F2F2"/>
<stop offset="0.493638" stop-color="white"/>
</linearGradient>
<linearGradient id="paint3_linear_285_3609" x1="432.4" y1="208.548" x2="433.698" y2="239.832" gradientUnits="userSpaceOnUse">
<stop stop-color="#BADDF5"/>
<stop offset="0.0106" stop-color="#BBDEF5"/>
<stop offset="0.225" stop-color="#D3E7F4"/>
<stop offset="0.4511" stop-color="#E5EDF3"/>
<stop offset="0.6965" stop-color="#EFF1F2"/>
<stop offset="0.9944" stop-color="#F2F2F2"/>
</linearGradient>
<linearGradient id="paint4_linear_285_3609" x1="205.947" y1="287.22" x2="211.789" y2="341.528" gradientUnits="userSpaceOnUse">
<stop stop-color="#BADDF5"/>
<stop offset="0.0106" stop-color="#BBDEF5"/>
<stop offset="0.225" stop-color="#D3E7F4"/>
<stop offset="0.4511" stop-color="#E5EDF3"/>
<stop offset="0.6965" stop-color="#EFF1F2"/>
<stop offset="0.9944" stop-color="#F2F2F2"/>
</linearGradient>
<clipPath id="clip0_285_3609">
<rect width="534" height="534" fill="white"/>
</clipPath>
</defs>
</svg>
