<svg width="116" height="120" viewBox="0 0 116 120" fill="none" xmlns="http://www.w3.org/2000/svg">
<g clip-path="url(#clip0_579_2535)">
<circle cx="57.6562" cy="62.3438" r="57.6562" fill="url(#paint0_linear_579_2535)"/>
<path d="M35.1587 71.4878L29.4822 74.2713C26.9488 75.5136 26.0386 78.878 27.4493 81.7859L40.0742 107.81C41.4849 110.718 44.6822 112.068 47.2157 110.826L52.8921 108.042C55.4256 106.8 56.3357 103.436 54.925 100.528L42.3002 74.5037C40.8895 71.5958 37.6921 70.2455 35.1587 71.4878Z" fill="#0061A0"/>
<path d="M38.4315 40.8989C38.4315 40.8989 36.086 49.4799 40.2137 57.6834C44.3413 65.8868 52.313 69.6591 52.313 69.6591L25.1134 82.9563C25.1134 82.9563 18.8281 81.3534 13.5774 72.3948C8.32305 63.4361 11.1399 54.4775 11.1399 54.4775L38.4352 40.8989H38.4315Z" fill="#0073AE"/>
<path d="M13.5769 72.3955C10.3992 66.9759 10.1746 61.56 10.4913 58.1209C8.06111 60.5975 6.5625 63.9958 6.5625 67.7496C6.5625 75.3274 12.6711 81.4688 20.2083 81.4688C20.757 81.4688 21.2946 81.4318 21.8248 81.3689C19.5382 79.914 16.4084 77.2227 13.5769 72.3955Z" fill="#33A6E1"/>
<path d="M104.394 68.7873C109.165 66.4481 105.615 49.2619 96.4647 30.4008C87.3148 11.5397 76.0302 -1.85384 71.2597 0.485381C66.4893 2.8246 70.0395 20.0108 79.1894 38.8719C88.3393 57.7329 99.624 71.1265 104.394 68.7873Z" fill="#0073AE"/>
<path d="M103.467 63.7076C106.696 62.1239 102.839 47.4927 94.852 31.0279C86.8645 14.5631 77.7713 2.4995 74.5416 4.08318C71.312 5.66686 75.169 20.2981 83.1564 36.7629C91.1438 53.2277 100.237 65.2913 103.467 63.7076Z" fill="#33A6E1"/>
<path d="M92.7573 39.4093C93.7626 38.9164 93.302 35.8875 91.7286 32.6442C90.1552 29.4008 88.0647 27.1712 87.0595 27.6641C86.0542 28.1571 86.5148 31.1859 88.0882 34.4293C89.6616 37.6726 91.752 39.9023 92.7573 39.4093Z" fill="#D9D9D6"/>
<path d="M87.0599 27.6649L79.5337 28.7644C80.6199 31.3484 81.8276 34.0285 83.1569 36.7642C84.5045 39.537 85.8816 42.1838 87.255 44.6641L92.7598 39.4111C91.7546 39.9035 89.6668 37.6749 88.0909 34.4283C86.5186 31.1855 86.0547 28.1573 87.0599 27.6649Z" fill="white"/>
<path d="M79.1878 38.8709C72.7626 25.6292 69.0989 13.213 69.1394 6.17935C68.4471 8.10064 64.4594 18.6918 57.4855 27.7208C49.7826 37.69 37.9778 43.4391 37.9778 43.4391C37.5912 46.5894 37.466 52.22 40.2165 57.6841C43.0296 63.2776 47.6286 66.8093 50.2723 68.4899C50.2723 68.4899 61.0204 63.3591 73.4769 62.8297C83.5474 62.4003 95.2417 65.7653 98.3237 66.7167C92.8189 62.2744 85.4989 51.8721 79.1915 38.8709H79.1878Z" fill="#33A6E1"/>
<path d="M37.9798 43.4424C37.9798 43.4424 38.9886 42.95 40.6014 42.0098L38.4327 40.9029C38.3553 40.8733 38.035 42.8168 37.9761 43.4461L37.9798 43.4424Z" fill="#0061A0"/>
<path d="M50.2734 68.4935C51.5069 69.2783 52.317 69.6633 52.317 69.6633L52.9282 67.3718C51.2418 68.0308 50.2734 68.4935 50.2734 68.4935Z" fill="#0061A0"/>
<path fill-rule="evenodd" clip-rule="evenodd" d="M18.457 105.046L19.5007 99.8698L25.9928 82.5179L38.6322 76.3958L54.8518 76.0487C55.8059 76.0463 56.4361 77.0385 56.0115 77.9059C55.0873 79.8193 53.1571 81.0473 51.0479 81.0527L43.7161 81.0713L35.7631 83.6397L46.8323 83.4913L54.3769 88.1861C56.0871 89.2519 56.6953 91.4672 55.7709 93.2787L56.1147 97.5843V99.7384L55.7709 102.754C54.8224 104.478 52.9979 105.184 50.8377 104.858L43.6618 109.05L38.4977 113.733C37.6713 114.363 36.5953 115.122 35.3998 115.86C29.097 113.289 23.3677 109.602 18.457 105.046ZM19.5007 99.8698L19.5163 99.7925L19.4915 99.8945L19.5007 99.8698Z" fill="white"/>
<path d="M48.8159 88.5908C47.3159 88.2158 41.0034 88.7471 38.0347 89.5283C40.6909 89.2158 46.9409 88.5906 48.8159 89.0594C50.6909 89.5281 53.1909 90.6218 54.9097 91.8718C53.1909 90.4656 50.3159 88.9658 48.8159 88.5908Z" fill="#3381B3"/>
<path d="M51.6284 93.807C50.1284 93.432 43.8159 93.9633 40.8472 94.7445C43.5034 94.432 49.7534 93.7468 51.6284 94.2155C53.5034 94.6843 53.5034 94.6843 54.9097 95.6218C54.4409 95.153 53.1284 94.182 51.6284 93.807Z" fill="#3381B3"/>
<path d="M51.1597 97.966C49.6135 97.9665 45.6909 98.6509 42.7222 99.4321C45.3784 99.1195 49.2847 98.4348 51.1597 98.4345C53.0347 98.4343 54.4409 98.9031 55.3784 99.3719C54.4409 98.4344 52.5659 97.9655 51.1597 97.966Z" fill="#3381B3"/>
</g>
<defs>
<linearGradient id="paint0_linear_579_2535" x1="81.5519" y1="11.4339" x2="21.2325" y2="106.98" gradientUnits="userSpaceOnUse">
<stop stop-color="#DBEBB8"/>
<stop offset="1" stop-color="#C7E9E7"/>
</linearGradient>
<clipPath id="clip0_579_2535">
<rect width="115.312" height="120" fill="white"/>
</clipPath>
</defs>
</svg>
