<svg width="24" height="24" viewBox="0 0 24 24" fill="none" xmlns="http://www.w3.org/2000/svg">
<path d="M18.2679 5.65179C16.6205 3.96429 14.3705 3 11.9598 3C7.05804 3 3.04018 7.01786 3.04018 11.9196C3.04018 13.5268 3.48214 15.0536 4.24554 16.3795L3 21L7.70089 19.7946C9.02679 20.4777 10.4732 20.8795 11.9598 20.8795C16.9018 20.8795 21 16.8616 21 11.9598C21 9.54911 19.9554 7.33929 18.2679 5.65179ZM11.9598 19.3527C10.6339 19.3527 9.34821 18.9911 8.18304 18.308L7.94196 18.1473L5.12946 18.9107L5.89286 16.1786L5.69196 15.8973C4.96875 14.692 4.56696 13.3259 4.56696 11.9196C4.56696 7.86161 7.90179 4.52679 12 4.52679C13.9688 4.52679 15.817 5.29018 17.2232 6.69643C18.6295 8.10268 19.4732 9.95089 19.4732 11.9598C19.4732 16.0179 16.058 19.3527 11.9598 19.3527ZM16.058 13.808C15.817 13.6875 14.7321 13.1652 14.5312 13.0848C14.3304 13.0045 14.1696 12.9643 14.0089 13.2054C13.8884 13.4062 13.4464 13.9286 13.3259 14.0893C13.1652 14.2098 13.0446 14.25 12.8438 14.1295C11.5179 13.4866 10.6741 12.9643 9.79018 11.4777C9.54911 11.0759 10.0313 11.1161 10.433 10.2723C10.5134 10.1116 10.4732 9.99107 10.433 9.87054C10.3929 9.75 9.91071 8.66518 9.75 8.22321C9.54911 7.78125 9.38839 7.82143 9.22768 7.82143C9.10714 7.82143 8.94643 7.82143 8.82589 7.82143C8.66518 7.82143 8.42411 7.86161 8.22321 8.10268C8.02232 8.34375 7.45982 8.86607 7.45982 9.95089C7.45982 11.0759 8.22321 12.1205 8.34375 12.2812C8.46429 12.4018 9.91071 14.6518 12.1607 15.6161C13.567 16.2589 14.1295 16.2991 14.8527 16.1786C15.2545 16.1384 16.1384 15.6562 16.3393 15.1339C16.5402 14.6116 16.5402 14.1696 16.4598 14.0893C16.4196 13.9688 16.2589 13.9286 16.058 13.808Z" fill="#007ABC"/>
</svg>
